<?xml version="1.0" standalone="no"?>
<!DOCTYPE svg PUBLIC "-//W3C//DTD SVG 20010904//EN"
 "http://www.w3.org/TR/2001/REC-SVG-20010904/DTD/svg10.dtd">
<svg version="1.0" xmlns="http://www.w3.org/2000/svg"
 width="1080.000000pt" height="1080.000000pt" viewBox="0 0 1080.000000 1080.000000"
 preserveAspectRatio="xMidYMid meet">

<g transform="translate(0.000000,1080.000000) scale(0.100000,-0.100000)"
fill="#000000" stroke="none">
<path d="M4210 10673 c-8 -2 -30 -24 -49 -49 -33 -43 -34 -49 -35 -133 l-1
-89 -48 -46 c-27 -25 -54 -46 -61 -46 -8 0 -19 -6 -25 -13 -8 -11 -5 -19 15
-38 58 -54 69 -91 74 -259 l5 -154 42 -8 c48 -8 86 -26 128 -63 20 -18 13 -15
-23 9 -54 36 -109 53 -137 42 -13 -5 -15 -183 -15 -1548 l0 -1543 -24 -50
c-12 -27 -43 -69 -69 -92 -84 -78 4 -73 -1407 -73 -1364 0 -1305 -2 -1392 55
-49 33 -94 102 -109 171 l-12 54 -83 0 c-78 0 -84 -2 -112 -29 -43 -43 -82
-130 -82 -182 0 -44 34 -142 57 -167 7 -7 13 -18 13 -23 0 -12 36 -63 72 -104
16 -16 28 -33 28 -36 0 -4 18 -26 40 -49 40 -42 53 -91 30 -105 -6 -3 -10 -23
-10 -44 0 -44 -18 -101 -31 -101 -6 0 -17 -17 -25 -37 -22 -56 -45 -94 -74
-126 -24 -26 -26 -35 -22 -80 2 -29 11 -59 18 -68 8 -8 14 -23 14 -32 0 -10
13 -36 30 -58 16 -23 32 -56 36 -75 3 -18 12 -38 20 -45 8 -6 14 -17 14 -24 0
-7 9 -24 20 -38 14 -18 20 -40 20 -80 0 -36 5 -59 15 -67 21 -17 22 -192 1
-209 -9 -8 -15 -39 -18 -88 -3 -72 -5 -77 -38 -105 -45 -37 -57 -44 -227 -125
-18 -9 -42 -13 -54 -10 -32 8 -79 -3 -79 -19 0 -8 6 -14 14 -14 8 0 18 -10 22
-22 20 -63 234 -207 332 -224 21 -3 57 -12 82 -19 25 -7 57 -16 71 -19 31 -7
107 -80 120 -114 17 -43 81 -115 184 -206 97 -85 114 -95 299 -182 38 -18 52
-18 73 4 32 31 73 98 73 115 0 28 28 64 60 77 19 8 37 28 51 58 13 25 30 53
39 62 26 26 60 86 60 106 0 11 7 32 15 48 8 15 15 34 15 42 0 16 64 83 102
107 32 20 78 23 77 5 0 -7 -9 -26 -20 -43 -19 -30 -31 -54 -54 -110 -7 -16
-22 -51 -34 -76 -12 -25 -21 -53 -21 -61 0 -8 -7 -23 -15 -34 -24 -31 -17 -57
23 -90 56 -46 67 -47 114 -14 22 17 46 30 52 30 31 1 53 37 58 93 3 37 11 64
24 78 17 19 19 37 19 183 0 126 -3 167 -14 180 -24 29 -40 139 -28 194 15 72
95 152 152 152 34 0 39 -16 20 -58 -9 -20 -25 -55 -35 -77 -24 -51 -25 -59
-17 -125 4 -30 8 -123 11 -206 3 -125 7 -156 22 -180 10 -16 21 -31 24 -34 16
-16 87 -119 98 -143 6 -15 12 -49 12 -75 0 -38 -6 -55 -30 -82 -16 -19 -30
-42 -30 -50 0 -8 -7 -24 -15 -34 -8 -11 -15 -27 -15 -36 0 -8 -9 -32 -20 -53
-11 -20 -20 -45 -20 -54 0 -10 -7 -27 -15 -37 -8 -11 -15 -27 -15 -36 0 -8 -9
-32 -20 -53 -11 -20 -20 -52 -20 -69 0 -51 -39 -220 -54 -237 -7 -9 -16 -28
-20 -43 -3 -16 -11 -28 -16 -28 -6 0 -10 -8 -10 -17 -1 -10 -9 -36 -20 -58
-11 -22 -19 -59 -20 -83 0 -37 -6 -47 -45 -85 -76 -72 -170 -147 -184 -147 -6
0 -14 -6 -18 -12 -4 -7 -22 -23 -40 -35 -29 -21 -45 -23 -188 -25 -85 -2 -155
-6 -155 -10 0 -5 0 -17 0 -28 0 -11 6 -20 14 -20 20 0 103 -95 127 -144 37
-77 53 -173 55 -326 2 -161 15 -231 60 -323 24 -50 19 -62 -58 -120 -139 -105
-184 -137 -196 -137 -7 0 -29 16 -49 35 -28 27 -43 35 -62 31 -14 -3 -45 -8
-68 -11 -51 -8 -68 -26 -94 -99 -21 -60 -19 -81 12 -196 19 -70 31 -79 95 -73
44 5 58 2 75 -13 27 -24 20 -58 -26 -124 -128 -182 -129 -184 -110 -220 21
-41 47 -52 125 -53 66 -1 69 0 121 44 64 52 106 95 150 152 61 80 79 89 156
81 63 -7 71 -11 118 -54 60 -55 130 -110 141 -110 4 0 15 -7 25 -16 21 -19
109 -69 162 -91 20 -9 37 -20 37 -25 0 -13 66 -9 97 6 33 17 127 37 199 43 45
4 55 1 94 -29 25 -19 51 -47 60 -63 8 -17 18 -32 21 -35 14 -12 59 -121 59
-142 0 -13 6 -32 14 -43 7 -11 16 -38 20 -60 4 -22 12 -45 17 -51 5 -7 13 -45
18 -86 5 -41 16 -89 26 -108 10 -19 73 -90 141 -157 68 -67 124 -127 124 -132
0 -8 70 -11 211 -11 l211 0 77 78 c67 68 79 85 93 137 9 33 20 108 23 167 l7
107 42 45 c63 66 175 135 233 143 51 7 83 22 123 61 24 23 25 29 22 120 -1 53
-9 128 -17 167 -19 89 -19 139 0 155 8 7 15 16 15 21 0 5 16 32 35 59 19 27
35 53 35 56 0 8 39 58 42 53 1 -2 5 -156 8 -341 l5 -336 24 -26 c67 -71 180
-43 201 49 6 23 10 511 10 1163 l0 1122 600 0 600 0 2 -1147 c3 -1050 4 -1150
20 -1171 27 -39 56 -54 105 -54 38 0 51 6 77 31 l31 31 5 1158 5 1157 55 7
c30 4 74 13 96 22 l41 14 70 -71 c70 -71 71 -73 77 -137 12 -129 94 -242 214
-298 54 -25 68 -27 237 -30 195 -4 271 5 344 40 102 49 181 168 189 283 4 59
5 61 79 137 l76 76 41 -14 c22 -9 66 -18 96 -22 l55 -7 5 -1157 5 -1158 31
-31 c26 -26 39 -31 79 -31 38 0 53 6 76 28 16 15 34 44 39 63 6 23 10 450 10
1159 l0 1122 633 1 c347 0 697 4 777 8 134 7 151 10 213 38 253 119 308 455
106 648 -70 67 -143 103 -227 111 l-62 7 0 66 c0 55 8 88 46 186 25 66 54 143
64 170 10 28 39 104 65 170 26 66 55 143 65 170 10 28 39 104 65 170 26 66 55
143 65 170 10 28 41 109 68 181 63 165 76 229 70 352 -10 193 -61 285 -280
508 l-159 162 7 43 c4 24 11 55 17 69 5 14 15 50 22 80 22 90 36 143 47 175 6
17 16 59 23 95 15 74 35 94 80 83 31 -8 183 -6 197 3 14 9 9 69 -12 134 -11
34 -20 75 -20 90 0 15 -7 47 -15 70 -22 63 -24 163 -4 186 30 35 41 171 18
231 -10 28 -47 65 -84 84 -159 81 -158 81 -177 139 -9 30 -17 69 -17 85 -1 17
-10 44 -21 60 -11 17 -20 37 -20 46 0 9 -7 19 -15 23 -8 3 -15 11 -15 18 0 8
-10 22 -22 33 -48 43 -122 95 -134 95 -7 0 -26 11 -43 26 -27 22 -29 28 -20
52 6 15 16 30 22 34 19 12 90 9 114 -5 80 -46 75 -45 199 -36 66 4 129 8 142
8 16 1 22 7 22 25 0 19 -10 27 -56 45 -31 11 -77 21 -103 21 -33 0 -56 7 -78
23 -17 12 -41 29 -53 37 -12 8 -45 32 -73 53 -36 26 -61 37 -86 37 -20 0 -63
7 -96 15 -33 8 -85 15 -115 16 -30 0 -65 4 -77 7 -22 7 -234 201 -307 282 -71
78 -164 170 -172 170 -4 0 -15 6 -23 14 -19 16 -79 47 -143 75 -42 19 -67 21
-227 21 l-181 0 0 -59 c0 -57 -1 -60 -42 -95 -50 -43 -51 -44 -108 -75 -36
-20 -59 -24 -126 -25 -85 0 -108 8 -157 57 -27 27 -106 30 -134 5 -33 -28 -87
-49 -143 -55 -50 -5 -61 -2 -125 33 -39 20 -90 48 -115 62 -25 13 -58 32 -75
43 -94 59 -173 79 -207 52 -7 -6 -44 -13 -83 -16 -75 -6 -152 13 -253 61 -49
23 -142 112 -142 137 -1 5 -9 28 -20 50 -23 48 -25 93 -5 122 8 12 16 40 17
63 1 35 -4 46 -31 71 -33 29 -68 37 -99 20 -20 -10 -42 0 -93 42 -19 15 -58
45 -88 65 -72 49 -79 62 -59 104 15 31 14 35 -2 56 -22 26 -91 30 -144 8 -98
-41 -201 -22 -270 49 -23 23 -52 45 -66 48 -73 17 -138 35 -155 45 -11 5 -38
15 -60 21 -24 6 -82 43 -143 91 -98 77 -104 80 -155 80 -64 0 -75 7 -208 139
-82 82 -111 104 -139 108 -19 3 -42 11 -50 18 -8 7 -26 16 -40 20 -40 12 -68
34 -91 71 -19 31 -25 34 -68 34 l-47 0 -128 130 c-71 72 -131 129 -135 129 -3
-1 -13 -3 -21 -6z m1330 -4165 c60 -28 394 -260 448 -311 70 -66 104 -180 88
-290 -13 -84 -20 -84 -121 -10 -49 36 -119 80 -155 97 -59 28 -73 31 -165 31
-81 0 -111 -4 -158 -23 -117 -48 -227 -185 -243 -303 l-7 -49 -94 0 c-143 0
-193 -33 -193 -129 0 -31 7 -49 29 -73 l29 -33 145 -5 145 -5 156 -182 c85
-100 164 -187 175 -192 31 -17 93 -13 128 9 38 23 58 79 44 128 -5 17 -73 104
-153 197 -78 92 -148 176 -155 188 -7 12 -12 45 -13 73 0 121 127 202 233 148
33 -17 372 -257 519 -368 123 -92 122 -90 126 -384 4 -331 -14 -467 -83 -619
-38 -83 -79 -146 -146 -225 -62 -72 -69 -91 -69 -194 l0 -84 -600 0 -600 0 0
83 c0 90 -7 116 -95 342 -26 66 -71 183 -100 260 -67 176 -189 496 -262 685
-53 135 -56 151 -56 230 -1 77 3 92 35 160 34 71 55 94 409 446 206 205 390
380 409 390 69 35 114 44 205 41 72 -2 101 -8 145 -29z m3448 18 c29 -8 74
-28 100 -45 26 -17 210 -193 409 -393 390 -391 400 -403 424 -532 17 -91 4
-137 -156 -551 -25 -66 -59 -154 -75 -195 -27 -72 -131 -344 -228 -595 -41
-107 -47 -131 -50 -217 l-4 -98 -598 0 -598 0 -4 99 c-3 96 -5 102 -36 138
-124 145 -190 264 -230 412 -24 90 -25 114 -30 386 -4 311 0 352 42 402 24 29
540 404 598 436 136 73 294 -85 221 -220 -10 -18 -80 -105 -156 -193 -76 -89
-143 -175 -149 -192 -26 -75 33 -148 122 -148 41 0 48 4 98 57 29 31 105 118
169 195 l117 138 128 0 c96 0 137 4 158 15 55 28 76 105 45 164 -23 45 -70 61
-178 61 l-94 0 -6 38 c-12 86 -48 155 -117 223 -82 81 -148 110 -263 117 -115
6 -184 -19 -322 -118 -125 -89 -125 -89 -145 7 -18 85 11 189 72 259 27 31
268 209 406 299 94 62 217 81 330 51z m-4651 -113 c-3 -10 -5 -4 -5 12 0 17 2
24 5 18 2 -7 2 -21 0 -30z m-16 -50 c-12 -20 -14 -14 -5 12 4 9 9 14 11 11 3
-2 0 -13 -6 -23z m-20 -40 c-17 -33 -103 -103 -125 -103 -6 0 11 13 36 29 26
16 56 43 69 60 25 34 35 41 20 14z m-144 -109 c-3 -3 -12 -4 -19 -1 -8 3 -5 6
6 6 11 1 17 -2 13 -5z m-69 -11 c-16 -2 -40 -2 -55 0 -16 2 -3 4 27 4 30 0 43
-2 28 -4z m3821 -2120 c59 -75 62 -80 59 -128 l-3 -50 -60 -7 c-84 -11 -193
-66 -246 -126 -103 -116 -132 -272 -78 -417 l19 -50 -44 -44 -44 -44 -35 27
c-76 58 -117 66 -345 66 -114 0 -223 -5 -242 -10 -20 -5 -62 -25 -93 -44 l-57
-35 -30 26 c-48 40 -51 52 -28 118 25 75 27 180 4 258 -9 32 -14 62 -11 67 3
4 20 12 38 16 17 3 41 13 52 20 11 8 26 14 35 14 8 1 33 9 55 20 22 11 47 20
55 20 8 0 24 7 34 15 11 8 27 15 36 15 8 0 32 9 53 20 20 11 45 20 54 20 10 0
27 7 37 15 11 8 26 15 34 15 14 0 67 22 135 56 16 8 34 14 40 14 7 0 29 9 50
20 20 11 45 20 54 20 10 0 27 7 37 15 11 8 26 15 34 15 14 0 67 22 135 56 16
8 33 14 39 14 11 0 79 30 128 55 14 7 28 14 31 14 4 1 34 -34 68 -76z m-1542
-434 c41 -15 70 -47 89 -96 20 -50 15 -61 -18 -40 -48 32 -102 25 -145 -18
-32 -32 -35 -39 -31 -82 3 -27 8 -56 12 -65 8 -17 -36 -18 -835 -18 -582 0
-856 4 -884 11 -112 31 -156 171 -83 264 44 56 9 54 975 55 608 0 901 -3 920
-11z m3373 -8 c113 -60 112 -219 -1 -286 -33 -20 -55 -20 -898 -23 l-863 -2 7
22 c24 75 10 131 -41 164 -33 22 -94 21 -129 -2 l-28 -19 6 34 c9 45 52 100
91 117 25 11 195 13 926 14 853 0 897 -1 930 -19z m-2447 -570 c51 -12 53 -15
29 -48 -31 -44 -35 -83 -13 -126 19 -37 19 -37 -1 -48 -21 -11 -361 -9 -373 3
-4 3 1 21 10 39 20 38 15 101 -9 128 -24 26 -20 39 17 50 41 12 290 13 340 2z"/>
<path d="M1543 9578 c-56 -27 -69 -144 -22 -194 52 -55 41 -54 591 -54 l510 0
29 29 c27 27 29 35 29 101 0 66 -2 74 -29 101 l-29 29 -529 -1 c-351 0 -535
-4 -550 -11z"/>
<path d="M1537 9069 c-24 -14 -47 -69 -47 -111 0 -45 34 -96 75 -114 29 -12
184 -14 1016 -14 887 0 984 2 1015 16 44 21 64 60 64 124 0 44 -5 56 -29 81
l-29 29 -1024 0 c-709 -1 -1029 -4 -1041 -11z"/>
<path d="M1525 8556 c-48 -48 -45 -147 6 -190 l31 -26 1009 0 c1097 0 1051 -2
1077 55 7 14 12 49 12 76 0 42 -5 55 -29 80 l-29 29 -1027 0 -1026 0 -24 -24z"/>
<path d="M1625 7980 c-33 -4 316 -7 775 -8 459 -1 840 -6 846 -10 7 -4 -298
-8 -678 -9 -718 -3 -713 -3 -750 -46 -10 -11 -18 -15 -18 -8 0 8 -9 7 -30 -4
-16 -8 -38 -15 -50 -15 -11 0 -40 -10 -63 -22 l-42 -23 85 -5 c140 -9 197 -61
191 -177 -1 -22 -5 -23 -71 -23 -68 0 -71 1 -81 27 -13 35 -26 43 -70 43 -36
0 -66 -21 -55 -38 3 -6 36 -17 73 -26 160 -40 213 -89 213 -195 0 -70 -33
-121 -99 -153 -86 -42 -250 -25 -299 32 -8 8 -5 -2 7 -22 11 -21 23 -53 26
-71 6 -30 4 -35 -17 -42 -30 -9 -786 -19 -832 -11 -24 5 -36 12 -36 23 0 9 -3
14 -6 10 -12 -11 7 -44 32 -56 19 -8 349 -11 1289 -11 695 0 1271 3 1279 6 9
3 13 10 10 16 -3 5 1 17 9 26 12 14 16 75 20 352 3 184 9 347 12 361 5 19 0
33 -18 55 l-25 29 -784 1 c-430 0 -810 -2 -843 -6z m711 -185 c37 -24 56 -45
79 -90 27 -53 30 -67 30 -154 -1 -89 -9 -124 -42 -182 -2 -3 12 -13 32 -22 19
-9 35 -21 35 -27 0 -5 -10 -30 -22 -55 -20 -41 -25 -45 -48 -40 -14 3 -42 17
-63 31 -36 24 -42 24 -92 14 -136 -28 -265 42 -306 165 -17 53 -17 158 0 217
18 62 73 125 135 155 43 20 63 23 132 21 69 -3 87 -7 130 -33z m294 -180 l0
-205 125 0 125 0 0 -70 0 -70 -195 0 -195 0 0 275 0 275 70 0 70 0 0 -205z"/>
<path d="M2144 7690 c-12 -4 -31 -21 -44 -37 -19 -25 -21 -37 -18 -110 3 -74
6 -85 30 -109 l27 -27 22 46 c13 26 27 47 31 47 5 0 27 -9 50 -21 50 -26 58
-18 58 64 0 79 -20 124 -64 142 -39 17 -61 18 -92 5z"/>
<path d="M645 7915 c8 -37 24 -58 160 -210 59 -66 111 -129 115 -140 8 -19 9
-19 9 2 1 16 -41 70 -130 168 -71 80 -137 160 -145 178 l-15 32 6 -30z"/>
<path d="M1469 7549 c-15 -48 -3 -62 46 -53 36 6 85 -10 85 -29 0 -8 9 -26 21
-41 16 -21 29 -26 64 -26 26 0 50 6 59 16 33 33 20 43 -111 83 -79 24 -107 38
-127 61 l-25 30 -12 -41z"/>
<path d="M813 7428 c-142 -163 -163 -189 -163 -201 0 -7 6 -3 12 8 10 17 163
197 237 278 13 15 22 27 19 27 -4 0 -51 -50 -105 -112z"/>
<path d="M2126 3925 c-11 -8 -27 -15 -35 -15 -9 0 -50 -17 -91 -38 -64 -32
-75 -42 -81 -70 -3 -17 -11 -38 -17 -45 -6 -7 -13 -31 -16 -52 -22 -168 -31
-214 -47 -242 -12 -22 -16 -43 -12 -67 5 -32 10 -35 69 -55 36 -12 71 -21 80
-21 14 0 121 74 136 95 15 20 7 58 -18 87 -44 53 -29 83 66 131 80 40 240 151
246 170 6 19 -20 67 -36 67 -4 0 -15 6 -22 13 -52 51 -179 75 -222 42z"/>
<path d="M9472 2788 c-12 -6 -32 -27 -43 -45 -47 -76 7 -178 95 -178 150 0
163 218 14 231 -24 2 -53 -1 -66 -8z"/>
<path d="M9472 2250 c-64 -39 -63 -19 -60 -775 3 -676 3 -684 24 -712 48 -64
146 -61 191 6 l23 34 0 686 c0 670 -1 687 -20 719 -20 32 -71 62 -107 62 -10
0 -33 -9 -51 -20z"/>
</g>
</svg>
